<svg xmlns="http://www.w3.org/2000/svg" viewBox="0 0 512 512" id="calender">
  <path fill="#f1f6f9" d="M478.87 71.82V474.5a29.998 29.998 0 0 1-30 30H63.13a29.998 29.998 0 0 1-30-30V71.82a30.052 30.052 0 0 1 30.05-30.05h385.64a30.052 30.052 0 0 1 30.05 30.05Z"></path>
  <path fill="#dde8ef" d="m448.869 41.771.001.049V392.5a82 82 0 0 1-82 82H33.13a29.998 29.998 0 0 0 30 30h385.74a30 30 0 0 0 30-30V71.82a30.05 30.05 0 0 0-30.001-30.049Z"></path>
  <path fill="#e53950" d="M478.87 71.82v77.13H33.13V71.82a30.052 30.052 0 0 1 30.05-30.05h385.64a30.052 30.052 0 0 1 30.05 30.05Z"></path>
  <path fill="#ca2e43" d="m448.869 41.771.001.049v24.077a53.053 53.053 0 0 1-53.053 53.053H33.13v30h445.74V71.82a30.05 30.05 0 0 0-30.001-30.049zM110.492 86.63c2.267 3.124 4.04 5.566 3.3 7.11-1.783 3.714-18.789 3.582-27.714-6.5-5.137-5.803-5.8-12.871-5.896-15.91V41.77h15v29.56a7.812 7.812 0 0 0 7.81 7.8c4.255 0 5.232 4.376 7.5 7.5z"></path>
  <path fill="#ca2e43" d="M383.01 86.63c2.267 3.124 4.04 5.566 3.3 7.11-1.783 3.714-18.788 3.582-27.714-6.5-5.137-5.803-5.8-12.871-5.896-15.91V41.77h15v29.56a7.812 7.812 0 0 0 7.81 7.8c4.255 0 5.232 4.376 7.5 7.5zm-136.22 0c2.268 3.124 4.04 5.566 3.3 7.11-1.782 3.714-18.788 3.582-27.713-6.5-5.137-5.803-5.801-12.871-5.897-15.91V41.77h15v29.56a7.812 7.812 0 0 0 7.81 7.8c4.256 0 5.233 4.376 7.5 7.5z"></path>
  <path fill="#e53950" d="M315.947 399.545a53.875 53.875 0 0 1-42.022-19.99 15 15 0 1 1 23.263-18.942 24.185 24.185 0 1 0 18.77-39.444c-9.867 0-13.705 1.407-18.852 3.724-.54.243-.885.411-.996.467a14.976 14.976 0 0 1-21.622-15.81l9.536-57.56a15 15 0 0 1 14.799-12.548h48.14a15 15 0 1 1 0 30h-35.421l-3.648 22.019c2.465-.193 5.131-.292 8.065-.292a54.424 54.424 0 0 1 39.296 16.886 53.75 53.75 0 0 1 14.818 40.164 54.348 54.348 0 0 1-53.003 51.314q-.562.011-1.123.012Z"></path>
  <path fill="#ca2e43" d="M346.963 254.441a15 15 0 0 1-15 15h15a15 15 0 0 0 0-30h-15a15 15 0 0 1 15 15zm-49.775 106.172a14.99 14.99 0 0 0-19.128-3.502 14.932 14.932 0 0 1 4.128 3.502 24.166 24.166 0 0 0 26.253 7.74 24.08 24.08 0 0 1-11.253-7.74z"></path>
  <path fill="#ca2e43" d="M355.255 308.055a54.424 54.424 0 0 0-39.296-16.886c-2.934 0-5.6.1-8.065.292l3.648-22.02h-15l-3.648 22.02c2.465-.193 5.131-.292 8.065-.292a54.424 54.424 0 0 1 39.296 16.886 53.75 53.75 0 0 1 14.818 40.164 54.37 54.37 0 0 1-46.628 50.792 54.857 54.857 0 0 0 7.502.533q.56 0 1.123-.01a54.348 54.348 0 0 0 53.003-51.315 53.75 53.75 0 0 0-14.818-40.164Z"></path>
  <path fill="#ca2e43" d="m282.106 324.893-.298.136a14.93 14.93 0 0 0 14.302.331c.11-.056.456-.224.996-.467a35.743 35.743 0 0 1 9.434-3.075 24.402 24.402 0 0 0-5.581-.649c-9.868 0-13.706 1.407-18.853 3.724Z"></path>
  <path fill="#e53950" d="M227.242 399.25h-.047l-65.293-.202a15 15 0 0 1-11.863-24.119c.184-.244 5.845-7.794 45.227-64.063 5.804-8.293 9.548-15.669 11.137-21.936l.39-3.047a17.79 17.79 0 0 0-35.22-2.652 15 15 0 0 1-29.437-5.782 47.79 47.79 0 0 1 94.675 9.246 15.005 15.005 0 0 1-.121 1.901l-.634 4.956a15.024 15.024 0 0 1-.266 1.487c-2.358 10.167-7.723 21.28-15.945 33.029a13282.482 13282.482 0 0 1-28.839 41.07l36.282.111a15 15 0 0 1-.046 30Z"></path>
  <path fill="#ca2e43" d="M156.573 283.231a14.952 14.952 0 0 1-7.22 10.086 14.972 14.972 0 0 0 22.22-10.086 17.766 17.766 0 0 1 9.932-12.65 17.745 17.745 0 0 0-24.932 12.65Z"></path>
  <path fill="#ca2e43" d="m227.288 369.249-36.282-.112c6.707-9.504 15.994-22.717 28.839-41.07 8.223-11.749 13.587-22.861 15.945-33.028a15.02 15.02 0 0 0 .266-1.487l.634-4.956a15.007 15.007 0 0 0 .12-1.901 47.719 47.719 0 0 0-55.254-47.187 47.858 47.858 0 0 1 40.255 47.187 15.007 15.007 0 0 1-.121 1.901l-.634 4.956a15.02 15.02 0 0 1-.266 1.487c-2.358 10.167-7.722 21.28-15.945 33.028a13283.872 13283.872 0 0 1-28.839 41.07l36.282.112a14.99 14.99 0 0 1 .816 29.957l14.091.043h.047a15 15 0 0 0 .046-30Z"></path>
  <path fill="#282828" d="m316.784 283.67 1.116-6.732h29.06a22.5 22.5 0 0 0 0-45h-48.14a22.426 22.426 0 0 0-22.196 18.822l-9.537 57.561a22.475 22.475 0 0 0 32.41 23.726c.105-.052.341-.164.686-.32 4.344-1.956 7.22-3.062 15.774-3.062a16.705 16.705 0 0 1 16.664 17.606 16.69 16.69 0 0 1-29.619 9.603 22.5 22.5 0 1 0-34.895 28.413 61.454 61.454 0 0 0 47.838 22.753c.42 0 .84-.004 1.274-.013a61.874 61.874 0 0 0 60.342-58.424 61.178 61.178 0 0 0-16.87-45.716 61.968 61.968 0 0 0-43.907-19.216Zm45.797 64.156a46.818 46.818 0 0 1-45.65 44.204c-.329.006-.658.01-.986.01a46.516 46.516 0 0 1-36.206-17.224 7.5 7.5 0 0 1 11.632-9.47 31.685 31.685 0 1 0 24.586-51.681c-11.318 0-16.229 1.817-21.935 4.386-.72.324-1.18.552-1.355.641a7.476 7.476 0 0 1-10.782-7.92l9.536-57.56a7.476 7.476 0 0 1 7.4-6.275h48.14a7.5 7.5 0 0 1 0 15h-35.42a7.5 7.5 0 0 0-7.4 6.275l-3.648 22.02a7.5 7.5 0 0 0 7.986 8.702 95.353 95.353 0 0 1 7.478-.269 46.889 46.889 0 0 1 33.857 14.55 46.319 46.319 0 0 1 12.767 34.611Zm86.24-313.556h-32.066V22.803A22.833 22.833 0 0 0 393.948-.004h-3.443a22.833 22.833 0 0 0-22.807 22.807V34.27h-87.171V22.803A22.833 22.833 0 0 0 257.72-.004h-3.444a22.833 22.833 0 0 0-22.807 22.807V34.27h-87.171V22.803A22.833 22.833 0 0 0 121.49-.004h-3.443A22.833 22.833 0 0 0 95.24 22.803V34.27H63.174a37.593 37.593 0 0 0-37.55 37.55v402.676a37.542 37.542 0 0 0 37.5 37.5h385.748a37.542 37.542 0 0 0 37.5-37.5V71.82a37.593 37.593 0 0 0-37.55-37.55Zm-66.123-11.467a7.815 7.815 0 0 1 7.807-7.807h3.443a7.816 7.816 0 0 1 7.807 7.807V34.27h-19.057Zm-136.229 0a7.816 7.816 0 0 1 7.807-7.807h3.444a7.816 7.816 0 0 1 7.807 7.807V34.27h-19.058Zm-136.228 0a7.816 7.816 0 0 1 7.807-7.807h3.443a7.815 7.815 0 0 1 7.807 7.807V34.27H110.24ZM471.372 141.45h-64.145a7.5 7.5 0 0 0 0 15h64.145v318.046a22.526 22.526 0 0 1-22.5 22.5H63.124a22.526 22.526 0 0 1-22.5-22.5V156.45h336.603a7.5 7.5 0 0 0 0-15H40.624V71.82a22.576 22.576 0 0 1 22.55-22.55h32.067v22.052a22.833 22.833 0 0 0 22.807 22.807 7.5 7.5 0 0 0 0-15 7.816 7.816 0 0 1-7.807-7.807V49.27h121.228v22.052a22.833 22.833 0 0 0 22.807 22.807 7.5 7.5 0 0 0 0-15 7.816 7.816 0 0 1-7.807-7.807V49.27H367.7v22.052a22.833 22.833 0 0 0 22.806 22.807 7.5 7.5 0 0 0 0-15 7.815 7.815 0 0 1-7.807-7.807V49.27h66.124a22.576 22.576 0 0 1 22.55 22.55ZM227.31 361.745l-21.88-.067c5.976-8.5 12.856-18.309 20.558-29.314 8.776-12.54 14.532-24.529 17.107-35.636.17-.733.304-1.482.4-2.23l.633-4.956a22.563 22.563 0 0 0 .182-2.852A55.29 55.29 0 0 0 134.774 276a22.5 22.5 0 1 0 44.157 8.673 10.29 10.29 0 0 1 20.327.985l-.236 1.84c-1.429 5.303-4.758 11.714-9.902 19.064l-5.59 7.982a7.5 7.5 0 0 0 12.284 8.61l5.595-7.992c6.324-9.036 10.45-17.243 12.262-24.392a7.532 7.532 0 0 0 .17-.892l.389-3.047a7.483 7.483 0 0 0 .053-1.289 25.29 25.29 0 0 0-50.071-3.76 7.5 7.5 0 1 1-14.719-2.891 40.29 40.29 0 0 1 79.816 7.8 7.573 7.573 0 0 1-.06.952l-.634 4.954a7.522 7.522 0 0 1-.134.745c-2.14 9.227-7.113 19.463-14.783 30.422a13514.513 13514.513 0 0 1-28.822 41.046 7.5 7.5 0 0 0 6.104 11.824l36.283.112a7.5 7.5 0 0 1-.047 15l-65.293-.201a7.5 7.5 0 0 1-5.898-12.104c.396-.525 6.734-9.277 22.94-32.282a7.5 7.5 0 1 0-12.263-8.638c-16.76 23.79-22.294 31.395-22.668 31.908a22.5 22.5 0 0 0 17.843 36.116l65.363.201a22.5 22.5 0 0 0 .07-45Z"></path>
</svg>
